<?xml version="1.0" encoding="iso-8859-1"?>
<!-- Generator: Adobe Illustrator 19.0.0, SVG Export Plug-In . SVG Version: 6.00 Build 0)  -->
<svg version="1.1" id="Capa_1" xmlns="http://www.w3.org/2000/svg" xmlns:xlink="http://www.w3.org/1999/xlink" x="0px" y="0px"
	 viewBox="0 0 512 512" style="enable-background:new 0 0 512 512;" xml:space="preserve">
<path style="fill:#ADB3BA;" d="M432.533,32v405.333c0,18.133-13.867,32-32,32h-310.4c-18.133,0-32-13.867-32-32V32
	c0-18.133,13.867-32,32-32h310.4C418.667,0,432.533,13.867,432.533,32z"/>
<path style="fill:#E8EAE9;" d="M390.933,74.667V480c0,18.133-13.867,32-32,32h-310.4c-18.133,0-32-13.867-32-32V168.533
	L142.4,42.667h216.533C376,42.667,390.933,56.533,390.933,74.667z"/>
<g>
	<rect x="58.133" y="355.2" style="fill:#ADB3BA;" width="289.067" height="30.933"/>
	<rect x="58.133" y="281.6" style="fill:#ADB3BA;" width="289.067" height="30.933"/>
	<rect x="58.133" y="206.933" style="fill:#ADB3BA;" width="289.067" height="30.933"/>
	<rect x="182.933" y="132.267" style="fill:#ADB3BA;" width="165.333" height="30.933"/>
</g>
<path style="fill:#CED6E0;" d="M142.4,42.667v93.867c0,17.067-13.867,32-32,32H16.533L142.4,42.667z"/>
<polygon style="fill:#F3705A;" points="443.2,313.6 443.2,477.867 393.067,427.733 342.933,477.867 342.933,313.6 "/>
<circle style="fill:#FFD15C;" cx="390.933" cy="251.733" r="104.533"/>
<circle style="fill:#F7B64C;" cx="390.933" cy="251.733" r="65.067"/>
<path style="fill:#55C0EB;" d="M201.067,472.533c-1.067,0-3.2,0-4.267-1.067c-6.4-2.133-11.733-6.4-12.8-12.8
	c-2.133-10.667,0-21.333,6.4-27.733c-3.2,0-7.467,0-10.667,1.067c-6.4,2.133-11.733,8.533-17.067,16l-3.2,2.133
	c-9.6,11.733-18.133,17.067-27.733,17.067l0,0c-10.667,0-20.267-7.467-25.6-19.2c-4.267-9.6-4.267-19.2-5.333-28.8
	c0-3.2,2.133-5.333,5.333-5.333c3.2,0,5.333,2.133,5.333,5.333c0,8.533,1.067,17.067,4.267,24.533c3.2,6.4,8.533,12.8,16,12.8
	c6.4,0,12.8-4.267,20.267-12.8l2.133-3.2c5.333-7.467,11.733-14.933,21.333-19.2c9.6-3.2,19.2-3.2,26.667,2.133
	c17.067-2.133,53.333,3.2,71.467,17.067c2.133,2.133,3.2,5.333,1.067,7.467c-2.133,2.133-5.333,3.2-7.467,1.067
	c-13.867-10.667-40.533-14.933-55.467-14.933c5.333,9.6,9.6,23.467,3.2,32C210.667,470.4,205.333,472.533,201.067,472.533z
	 M198.933,436.267c-3.2,3.2-8.533,8.533-6.4,20.267c0,1.067,2.133,3.2,5.333,4.267c3.2,1.067,5.333,0,7.467-2.133
	C209.6,455.467,205.333,443.733,198.933,436.267z"/>
<g>
</g>
<g>
</g>
<g>
</g>
<g>
</g>
<g>
</g>
<g>
</g>
<g>
</g>
<g>
</g>
<g>
</g>
<g>
</g>
<g>
</g>
<g>
</g>
<g>
</g>
<g>
</g>
<g>
</g>
</svg>
