<svg height="464pt" viewBox="0 0 464 464" width="464pt" xmlns="http://www.w3.org/2000/svg"><path d="m432 416h-432v32c.0273438 8.824219 7.175781 15.972656 16 16h432c8.824219-.027344 15.972656-7.175781 16-16v-32zm0 0" fill="#acabb1"/><path d="m400 112h-336c-17.671875 0-32 14.328125-32 32v272h400v-272c0-17.671875-14.328125-32-32-32zm0 0" fill="#78b9eb"/><path d="m178.160156 222-98.160156 98.160156v-160.160156l32 20.238281zm0 0" fill="#ffa733"/><path d="m112 152v28.238281l-32-20.238281v-8zm0 0" fill="#ee8700"/><path d="m344 0h-224c-4.417969 0-8 3.582031-8 8v172.238281l66.160156 41.761719 45.28125 28.640625c5.234375 3.28125 11.882813 3.28125 17.117188 0l45.28125-28.640625 66.160156-41.761719v-172.238281c0-4.417969-3.582031-8-8-8zm0 0" fill="#e6e7e8"/><path d="m192 416h80v16c0 4.417969-3.582031 8-8 8h-64c-4.417969 0-8-3.582031-8-8zm0 0" fill="#898890"/><path d="m384 160v160.160156l-98.160156-98.160156 66.160156-41.761719zm0 0" fill="#ffa733"/><path d="m384 320.160156v7.839844c-.027344 8.824219-7.175781 15.972656-16 16h-272c-8.824219-.027344-15.972656-7.175781-16-16v-7.839844l98.160156-98.160156 45.28125 28.640625c5.234375 3.28125 11.882813 3.28125 17.117188 0l45.28125-28.640625zm0 0" fill="#ff9811"/><path d="m384 152v8l-32 20.238281v-28.238281zm0 0" fill="#ee8700"/><path d="m320 0v48l-16-16-16 16v-48zm0 0" fill="#ff5023"/><g fill="#1e81ce"><path d="m56 376h352v16h-352zm0 0"/><path d="m240 120h-16c-13.253906 0-24 10.746094-24 24v56h16v-32h32v32h16v-56c0-13.253906-10.746094-24-24-24zm-24 32v-8c0-4.417969 3.582031-8 8-8h16c4.417969 0 8 3.582031 8 8v8zm0 0"/><path d="m312 104h-16v-16h-16v16h-16v16h16v16h16v-16h16zm0 0"/></g><path d="m152 40h16v16h-16zm0 0" fill="#c6c5ca"/><path d="m184 40h48v16h-48zm0 0" fill="#c6c5ca"/><path d="m152 72h80v16h-80zm0 0" fill="#c6c5ca"/></svg>